<svg xmlns="http://www.w3.org/2000/svg" viewBox="0 0 24 24" width="32" height="32" fill="none">
  <defs>
    <linearGradient id="brandGrad" x1="0%" y1="0%" x2="100%" y2="100%">
      <stop offset="0%" stop-color="#7B6BF5" />
      <stop offset="55%" stop-color="#9B7BF7" />
      <stop offset="100%" stop-color="#4F8CF7" />
    </linearGradient>
  </defs>
  <rect width="24" height="24" rx="6" fill="url(#brandGrad)" />
  <path d="m12 3-1.912 5.813a2 2 0 0 1-1.275 1.275L3 12l5.813 1.912a2 2 0 0 1 1.275 1.275L12 21l1.912-5.813a2 2 0 0 1 1.275-1.275L21 12l-5.813-1.912a2 2 0 0 1-1.275-1.275L12 3Z" fill="#ffffff" />
  <path d="m5 3 1 2.5L8.5 6 6 7 5 9.5 4 7 1.5 6 4 5 5 3Z" fill="#ffffff" opacity="0.7" />
  <path d="m19 17 1 2.5 2.5.5-2.5 1-1 2.5-1-2.5-2.5-1 2.5-1 1-2.5Z" fill="#ffffff" opacity="0.8" />
</svg>
